<?xml version="1.0" encoding="UTF-8"?>
<!DOCTYPE svg PUBLIC "-//W3C//DTD SVG 1.0//EN" "http://www.w3.org/TR/2001/REC-SVG-20010904/DTD/svg10.dtd">
<!-- Creator: CorelDRAW 2020 (64-Bit) -->
<svg xmlns="http://www.w3.org/2000/svg" xml:space="preserve" width="340.254mm" height="94.1918mm" version="1.0" shape-rendering="geometricPrecision" text-rendering="geometricPrecision" image-rendering="optimizeQuality" fill-rule="evenodd" clip-rule="evenodd"
viewBox="0 0 340.254 94.1918"
 xmlns:xlink="http://www.w3.org/1999/xlink"
 xmlns:xodm="http://www.corel.com/coreldraw/odm/2003">
 <defs>
   <clipPath id="id0">
    <path d="M-0.053 -0.2558l340.254 0 0 94.83 -340.254 0 0 -94.83z"/>
   </clipPath>
 </defs>
 <g id="Capa_x0020_1">
  <metadata id="CorelCorpID_0Corel-Layer"/>
  <g>
  </g>
  <g clip-path="url(#id0)">
   <g>
    <g id="Logotipo">
     <path  fill-rule="nonzero" d="M127.0377 57.6074l-4.3711 0 0 -17.1997c0,-1.4043 0.0886,-3.1312 0.2594,-5.1682l-0.0759 0c-0.272,1.1576 -0.5124,1.9926 -0.7212,2.4987l-7.9325 19.8692 -3.0363 0 -7.9515 -19.7174c-0.2215,-0.582 -0.4617,-1.4675 -0.7084,-2.6505l-0.0697 0c0.0949,1.0627 0.1456,2.7961 0.1456,5.2062l0 17.1617 -4.0739 0 0 -26.5744 6.2056 0 6.9836 17.6993c0.5314,1.3601 0.8793,2.3722 1.0438,3.0364l0.0886 0c0.4617,-1.3979 0.8286,-2.4354 1.1132,-3.1123l7.1165 -17.6234 5.9842 0 0 26.5744zm17.4971 0.4427c-3.8272,0 -6.895,-1.2398 -9.204,-3.7258 -2.3025,-2.4797 -3.4539,-5.7121 -3.4539,-9.6911 0,-4.2761 1.1766,-7.6858 3.5235,-10.2287 2.3468,-2.5429 5.535,-3.8207 9.5582,-3.8207 3.7322,0 6.7369,1.2398 9.0206,3.7068 2.2772,2.4735 3.4159,5.7059 3.4159,9.6974 0,4.3332 -1.1641,7.7617 -3.4983,10.2857 -2.3404,2.5177 -5.459,3.7764 -9.362,3.7764zm0.2025 -23.5887c-2.4291,0 -4.4092,0.9047 -5.9399,2.7202 -1.5246,1.8218 -2.29,4.2065 -2.29,7.1734 0,2.954 0.7464,5.3326 2.2266,7.1354 1.4802,1.8029 3.4223,2.7074 5.8198,2.7074 2.5429,0 4.5545,-0.8603 6.022,-2.5745 1.4677,-1.7207 2.2078,-4.1245 2.2078,-7.2114 0,-3.1756 -0.7148,-5.6299 -2.1444,-7.3569 -1.4233,-1.7269 -3.3907,-2.5936 -5.9019,-2.5936zm38.0683 23.146l-5.1555 0 -4.2445 -7.1165c-0.3795,-0.6579 -0.7528,-1.2145 -1.1196,-1.6763 -0.367,-0.4618 -0.7339,-0.8414 -1.1134,-1.1386 -0.3733,-0.2973 -0.7844,-0.5124 -1.2335,-0.6516 -0.4428,-0.1329 -0.9426,-0.2024 -1.4993,-0.2024l-1.7775 0 0 10.7854 -4.3901 0 0 -26.5744 8.7423 0c1.2525,0 2.3974,0.1454 3.4474,0.4427 1.0502,0.2974 1.9674,0.7464 2.7454,1.3474 0.7781,0.5946 1.3854,1.3411 1.8219,2.2393 0.4427,0.8982 0.6579,1.942 0.6579,3.144 0,0.9361 -0.1393,1.7964 -0.4112,2.5809 -0.2784,0.7843 -0.6769,1.4865 -1.1893,2.0937 -0.5124,0.6136 -1.1322,1.1387 -1.8534,1.5689 -0.7211,0.43 -1.5371,0.7653 -2.4355,0.9993l0 0.076c0.4809,0.2721 0.8984,0.5693 1.2589,0.8983 0.3606,0.3289 0.6958,0.6642 1.0184,1.0121 0.3226,0.3416 0.6389,0.7338 0.9553,1.1766 0.3162,0.4364 0.6642,0.9426 1.05,1.5244l4.7253 7.4708zm-16.1433 -23.0004l0 8.6346 3.669 0c0.6768,0 1.3094,-0.1011 1.8787,-0.3099 0.5756,-0.2152 1.0753,-0.5124 1.4928,-0.9109 0.4239,-0.3923 0.7466,-0.8794 0.9806,-1.4423 0.2404,-0.5693 0.3543,-1.2082 0.3543,-1.9104 0,-1.2715 -0.3986,-2.271 -1.202,-2.9857 -0.8034,-0.7149 -1.961,-1.0754 -3.4664,-1.0754l-3.707 0zm39.77 23.0004l-5.1555 0 -4.2445 -7.1165c-0.3795,-0.6579 -0.7528,-1.2145 -1.1197,-1.6763 -0.367,-0.4618 -0.7338,-0.8414 -1.1133,-1.1386 -0.3733,-0.2973 -0.7844,-0.5124 -1.2336,-0.6516 -0.4427,-0.1329 -0.9425,-0.2024 -1.4992,-0.2024l-1.7776 0 0 10.7854 -4.39 0 0 -26.5744 8.7423 0c1.2525,0 2.3974,0.1454 3.4474,0.4427 1.0502,0.2974 1.9674,0.7464 2.7454,1.3474 0.7781,0.5946 1.3854,1.3411 1.8218,2.2393 0.4428,0.8982 0.658,1.942 0.658,3.144 0,0.9361 -0.1393,1.7964 -0.4113,2.5809 -0.2783,0.7843 -0.6769,1.4865 -1.1892,2.0937 -0.5124,0.6136 -1.1323,1.1387 -1.8534,1.5689 -0.7211,0.43 -1.5371,0.7653 -2.4355,0.9993l0 0.076c0.4809,0.2721 0.8984,0.5693 1.2589,0.8983 0.3606,0.3289 0.6958,0.6642 1.0184,1.0121 0.3226,0.3416 0.6389,0.7338 0.9553,1.1766 0.3161,0.4364 0.6642,0.9426 1.05,1.5244l4.7253 7.4708zm-16.1434 -23.0004l0 8.6346 3.6691 0c0.6767,0 1.3094,-0.1011 1.8787,-0.3099 0.5756,-0.2152 1.0753,-0.5124 1.4928,-0.9109 0.4239,-0.3923 0.7465,-0.8794 0.9806,-1.4423 0.2404,-0.5693 0.3542,-1.2082 0.3542,-1.9104 0,-1.2715 -0.3985,-2.271 -1.2019,-2.9857 -0.8034,-0.7149 -1.961,-1.0754 -3.4665,-1.0754l-3.707 0zm23.7533 23.0004l-4.5356 0 0 -26.5744 4.5356 0 0 26.5744zm5.3199 -1.0565l0 -4.5418c0.4112,0.3733 0.8919,0.7084 1.455,0.9995 0.563,0.2972 1.1576,0.5504 1.7901,0.7527 0.6263,0.2024 1.2589,0.3605 1.8915,0.4744 0.6262,0.1076 1.2082,0.1645 1.7396,0.1645 1.8533,0 3.2324,-0.3099 4.1433,-0.9236 0.9046,-0.6198 1.3601,-1.5182 1.3601,-2.6883 0,-0.6327 -0.1518,-1.1766 -0.4555,-1.6385 -0.2973,-0.468 -0.7211,-0.8919 -1.2652,-1.2715 -0.544,-0.3858 -1.1828,-0.7526 -1.9167,-1.1006 -0.7401,-0.3542 -1.5244,-0.7212 -2.3658,-1.107 -0.9045,-0.4807 -1.7395,-0.9678 -2.5176,-1.4612 -0.7781,-0.4935 -1.455,-1.0438 -2.0306,-1.6384 -0.5757,-0.601 -1.0247,-1.2779 -1.3538,-2.0305 -0.3289,-0.7528 -0.4934,-1.6385 -0.4934,-2.6506 0,-1.2462 0.2847,-2.3342 0.8477,-3.2513 0.5566,-0.9237 1.3032,-1.6827 2.2204,-2.2837 0.9236,-0.5946 1.9673,-1.0438 3.1439,-1.3347 1.1702,-0.291 2.3722,-0.4365 3.593,-0.4365 2.7834,0 4.8075,0.3163 6.079,0.9489l0 4.352c-1.5055,-1.0817 -3.4474,-1.6256 -5.8196,-1.6256 -0.6517,0 -1.3032,0.0569 -1.9547,0.1834 -0.6516,0.1202 -1.2272,0.329 -1.7396,0.6137 -0.5124,0.2782 -0.9299,0.6452 -1.2525,1.0879 -0.3226,0.4492 -0.4807,0.9868 -0.4807,1.6131 0,0.5946 0.1201,1.107 0.3668,1.5372 0.2468,0.4364 0.6073,0.8287 1.088,1.1892 0.4745,0.3606 1.0565,0.7085 1.7397,1.0438 0.6831,0.3416 1.4802,0.7084 2.3848,1.1069 0.9235,0.4807 1.7964,0.9869 2.6189,1.5182 0.8223,0.5314 1.5434,1.1197 2.1697,1.7586 0.6262,0.6453 1.1196,1.36 1.4802,2.1445 0.3668,0.7843 0.5503,1.6762 0.5503,2.6757 0,1.3474 -0.2719,2.4861 -0.816,3.4095 -0.5441,0.9299 -1.2777,1.6827 -2.1951,2.2647 -0.9234,0.5756 -1.9799,0.9994 -3.1817,1.2588 -1.1956,0.2594 -2.4608,0.3858 -3.7955,0.3858 -0.4492,0 -0.9932,-0.0315 -1.6447,-0.1011 -0.6453,-0.0697 -1.3095,-0.1646 -1.9926,-0.2974 -0.6769,-0.1264 -1.3222,-0.2847 -1.923,-0.468 -0.6073,-0.1898 -1.0944,-0.3985 -1.4677,-0.6327z"/>
     <path  fill-rule="nonzero" d="M101.1512 79.5272l0 -11.8233 -3.4177 0 0 -2.4042 9.1536 0 0 2.4042 -3.4179 0 0 11.8233 -2.318 0zm7.1698 0l0 -14.2275 2.3177 0 0 14.2275 -2.3177 0zm4.5962 0l0 -14.2275 2.2554 0 4.7371 9.5015 0 -9.5015 2.1608 0 0 14.2275 -2.3344 0 -4.6584 -9.2763 0 9.2763 -2.1605 0zm14.1783 0l0 -11.8233 -3.4177 0 0 -2.4042 9.1535 0 0 2.4042 -3.4179 0 0 11.8233 -2.3179 0zm6.4983 -7.0276c0,-1.6924 0.2488,-3.0866 0.7433,-4.183 0.4942,-1.0962 1.1423,-1.9141 1.9412,-2.4507 0.7989,-0.5365 1.768,-0.8048 2.9037,-0.8048 1.6501,0 2.9924,0.636 4.0301,1.911 1.0377,1.275 1.5583,3.0866 1.5583,5.4412 0,2.3779 -0.5499,4.2392 -1.6501,5.5772 -0.9625,1.1823 -2.2751,1.7752 -3.9283,1.7752 -1.6696,0 -2.9856,-0.5862 -3.9481,-1.7554 -1.1002,-1.3379 -1.6501,-3.1758 -1.6501,-5.5107zm2.3965 -0.0961c0,1.6328 0.3077,2.8581 0.9199,3.6727 0.6153,0.8181 1.3783,1.2256 2.2849,1.2256 0.9168,0 1.6762,-0.4041 2.2753,-1.2156 0.6025,-0.8082 0.9036,-2.0532 0.9036,-3.7324 0,-1.6427 -0.2914,-2.8613 -0.8774,-3.6462 -0.586,-0.7884 -1.3521,-1.1825 -2.3015,-1.1825 -0.9459,0 -1.7153,0.3974 -2.3113,1.1889 -0.5955,0.7949 -0.8935,2.0235 -0.8935,3.6895zm10.61 7.1237l0 -14.2275 4.9006 0c1.2541,0 2.1477,0.1291 2.688,0.3841 0.5368,0.2549 0.9754,0.6987 1.3224,1.328 0.3436,0.6327 0.5173,1.3878 0.5173,2.2654 0,1.1126 -0.265,2.0102 -0.792,2.6892 -0.5273,0.6788 -1.277,1.1059 -2.2492,1.2817 0.4975,0.3608 0.9133,0.7582 1.2374,1.1889 0.3273,0.4305 0.7725,1.2021 1.339,2.3149l1.4078 2.7753 -2.786 0 -1.6891 -3.0933c-0.606,-1.1193 -1.0182,-1.8213 -1.2377,-2.1029 -0.216,-0.2816 -0.4486,-0.4769 -0.6907,-0.583 -0.2423,-0.1091 -0.6319,-0.1622 -1.1687,-0.1622l-0.4812 0 0 5.9414 -2.3179 0zm2.3179 -8.2068l1.7284 0c1.0574,0 1.7286,-0.0463 2.0168,-0.1424 0.2878,-0.0925 0.5204,-0.2814 0.7005,-0.5663 0.18,-0.2847 0.2682,-0.6657 0.2682,-1.1392 0,-0.4536 -0.0882,-0.8179 -0.2682,-1.0929 -0.1801,-0.2749 -0.4224,-0.4635 -0.7302,-0.5696 -0.2159,-0.0694 -0.8479,-0.1061 -1.892,-0.1061l-1.8235 0 0 3.6165zm9.307 8.2068l0 -14.2275 8.5447 0 0 2.4042 -6.2268 0 0 3.1397 5.7947 0 0 2.4045 -5.7947 0 0 3.8748 6.4428 0 0 2.4043 -8.7607 0zm10.7411 0l0 -14.2275 4.9006 0c1.2541,0 2.1477,0.1291 2.688,0.3841 0.5368,0.2549 0.9754,0.6987 1.3224,1.328 0.3437,0.6327 0.5173,1.3878 0.5173,2.2654 0,1.1126 -0.265,2.0102 -0.792,2.6892 -0.5273,0.6788 -1.277,1.1059 -2.2492,1.2817 0.4975,0.3608 0.9133,0.7582 1.2374,1.1889 0.3273,0.4305 0.7725,1.2021 1.339,2.3149l1.4078 2.7753 -2.786 0 -1.6891 -3.0933c-0.606,-1.1193 -1.0184,-1.8213 -1.2377,-2.1029 -0.216,-0.2816 -0.4486,-0.4769 -0.6907,-0.583 -0.2423,-0.1091 -0.6319,-0.1622 -1.1687,-0.1622l-0.4811 0 0 5.9414 -2.318 0zm2.318 -8.2068l1.7283 0c1.0574,0 1.7286,-0.0463 2.0166,-0.1424 0.288,-0.0925 0.5206,-0.2814 0.7007,-0.5663 0.18,-0.2847 0.2682,-0.6657 0.2682,-1.1392 0,-0.4536 -0.0882,-0.8179 -0.2682,-1.0929 -0.1801,-0.2749 -0.4224,-0.4635 -0.7302,-0.5696 -0.2159,-0.0694 -0.8479,-0.1061 -1.8922,-0.1061l-1.8232 0 0 3.6165zm9.2284 8.2068l0 -14.2275 2.318 0 0 14.2275 -2.318 0zm-0.0785 -15.1813l1.087 -2.9013 2.4877 0 -2.1705 2.9013 -1.4042 0zm15.0262 15.1813l-2.5208 0 -0.9851 -3.2191 -4.6359 0 -0.9525 3.2191 -2.4749 0 4.4817 -14.2275 2.4814 0 4.6061 14.2275zm-4.2655 -5.6234l-1.5976 -5.2823 -1.5649 5.2823 3.1625 0zm4.9105 0.9934l2.259 -0.2782c0.2554,1.8149 1.0964,2.7225 2.5208,2.7225 0.7068,0 1.2603,-0.1855 1.666,-0.5566 0.4029,-0.3707 0.606,-0.8312 0.606,-1.3808 0,-0.3247 -0.0723,-0.5963 -0.2131,-0.8248 -0.1405,-0.2253 -0.3567,-0.4105 -0.6447,-0.5563 -0.288,-0.1458 -0.9887,-0.3908 -2.0954,-0.7319 -0.9917,-0.3049 -1.7186,-0.6326 -2.1802,-0.987 -0.4583,-0.3577 -0.825,-0.8245 -1.0966,-1.4008 -0.2717,-0.5796 -0.4094,-1.2023 -0.4094,-1.868 0,-0.7748 0.1737,-1.4736 0.524,-2.0929 0.3503,-0.6193 0.8315,-1.0898 1.447,-1.4075 0.6155,-0.3147 1.3749,-0.4738 2.2784,-0.4738 1.3585,0 2.4193,0.371 3.182,1.1162 0.763,0.7451 1.1657,1.8116 1.2116,3.1958l-2.3377 0.1194c-0.1013,-0.7585 -0.3239,-1.2917 -0.6648,-1.5931 -0.3403,-0.3013 -0.8248,-0.4538 -1.4565,-0.4538 -0.6288,0 -1.1133,0.1325 -1.4536,0.3941 -0.3406,0.2617 -0.5106,0.5863 -0.5106,0.9771 0,0.3841 0.1569,0.7054 0.468,0.967 0.3111,0.2616 1.0215,0.5565 2.1248,0.8776 1.1721,0.3477 2.0164,0.7121 2.537,1.0895 0.5204,0.381 0.92,0.8679 1.1949,1.4639 0.2752,0.5996 0.4124,1.3247 0.4124,2.1793 0,1.232 -0.3763,2.2718 -1.1261,3.1097 -0.753,0.8412 -1.9282,1.2619 -3.5257,1.2619 -2.8253,0 -4.3966,-1.623 -4.7175,-4.8685zm18.5552 4.63l0 -6.0142 -4.2232 -8.2133 2.698 0 2.7103 5.5903 2.6616 -5.5903 2.6942 0 -4.223 8.2331 0 5.9944 -2.3179 0zm11.9555 0l0 -14.1084 2.3179 0 0 11.7041 5.7944 0 0 2.4043 -8.1123 0zm20.1922 0l-2.5206 0 -0.9853 -3.2191 -4.6357 0 -0.9527 3.2191 -2.475 0 4.4818 -14.2275 2.4816 0 4.6059 14.2275zm-4.2656 -5.6234l-1.5975 -5.2823 -1.5647 5.2823 3.1622 0zm7.2709 5.6234l-4.1281 -14.2275 2.4946 0 2.9366 10.5315 2.7957 -10.5315 2.498 0 -4.0855 14.2275 -2.5113 0zm17.0038 0l-2.5209 0 -0.9853 -3.2191 -4.6357 0 -0.9527 3.2191 -2.4747 0 4.4815 -14.2275 2.4816 0 4.6062 14.2275zm-4.2659 -5.6234l-1.5975 -5.2823 -1.5647 5.2823 3.1622 0zm5.5392 5.6234l0 -14.2275 2.2556 0 4.737 9.5015 0 -9.5015 2.161 0 0 14.2275 -2.3344 0 -4.6584 -9.2763 0 9.2763 -2.1608 0zm11.5662 -14.2275l4.246 0c1.0736,0 1.8858,0.1224 2.4324,0.3643 0.5465,0.2417 1.0476,0.6524 1.509,1.2287 0.4617,0.5729 0.822,1.3214 1.0839,2.2387 0.2618,0.9207 0.3929,2.0632 0.3929,3.4277 0,1.2286 -0.1375,2.2984 -0.4127,3.2058 -0.2752,0.9109 -0.6222,1.6294 -1.0443,2.1593 -0.4222,0.5332 -0.933,0.9306 -1.5288,1.1989 -0.5991,0.2683 -1.3685,0.4041 -2.308,0.4041l-4.3704 0 0 -14.2275zm2.3177 2.4042l0 9.419 1.7483 0c0.7497,0 1.2929,-0.0697 1.6304,-0.2121 0.337,-0.1423 0.6121,-0.3578 0.825,-0.6458 0.216,-0.288 0.3927,-0.7418 0.5332,-1.3644 0.1411,-0.6193 0.2131,-1.4373 0.2131,-2.454 0,-1.0531 -0.072,-1.8846 -0.2162,-2.4939 -0.1438,-0.606 -0.3698,-1.0862 -0.6742,-1.4339 -0.3044,-0.3478 -0.6745,-0.5796 -1.11,-0.6891 -0.3239,-0.0827 -0.9559,-0.1258 -1.8922,-0.1258l-1.0574 0zm9.3269 11.8233l0 -14.2275 8.5445 0 0 2.4042 -6.2265 0 0 3.1397 5.7943 0 0 2.4045 -5.7943 0 0 3.8748 6.4424 0 0 2.4043 -8.7604 0zm10.7411 0l0 -14.2275 4.9006 0c1.2541,0 2.1477,0.1291 2.6878,0.3841 0.5368,0.2549 0.9756,0.6987 1.3226,1.328 0.3437,0.6327 0.517,1.3878 0.517,2.2654 0,1.1126 -0.2649,2.0102 -0.792,2.6892 -0.527,0.6788 -1.2767,1.1059 -2.2492,1.2817 0.4978,0.3608 0.9133,0.7582 1.2377,1.1889 0.3273,0.4305 0.7725,1.2021 1.3388,2.3149l1.4078 2.7753 -2.7858 0 -1.6893 -3.0933c-0.6058,-1.1193 -1.0182,-1.8213 -1.2375,-2.1029 -0.2162,-0.2816 -0.4486,-0.4769 -0.6909,-0.583 -0.2424,-0.1091 -0.6319,-0.1622 -1.1685,-0.1622l-0.4814 0 0 5.9414 -2.3177 0zm2.3177 -8.2068l1.7286 0c1.0574,0 1.7284,-0.0463 2.0166,-0.1424 0.288,-0.0925 0.5206,-0.2814 0.7007,-0.5663 0.18,-0.2847 0.2683,-0.6657 0.2683,-1.1392 0,-0.4536 -0.0883,-0.8179 -0.2683,-1.0929 -0.1801,-0.2749 -0.4227,-0.4635 -0.7304,-0.5696 -0.216,-0.0694 -0.8477,-0.1061 -1.892,-0.1061l-1.8235 0 0 3.6165zm9.2287 8.2068l0 -14.2275 2.3177 0 0 14.2275 -2.3177 0zm-0.0785 -15.1813l1.0867 -2.9013 2.488 0 -2.1705 2.9013 -1.4042 0zm15.0262 15.1813l-2.5208 0 -0.9853 -3.2191 -4.6357 0 -0.9527 3.2191 -2.4747 0 4.4815 -14.2275 2.4816 0 4.6061 14.2275zm-4.2658 -5.6234l-1.5975 -5.2823 -1.5647 5.2823 3.1622 0zm4.9106 0.9934l2.2592 -0.2782c0.2552,1.8149 1.0964,2.7225 2.5206,2.7225 0.7071,0 1.2605,-0.1855 1.6662,-0.5566 0.4027,-0.3707 0.6058,-0.8312 0.6058,-1.3808 0,-0.3247 -0.0721,-0.5963 -0.2129,-0.8248 -0.1408,-0.2253 -0.3567,-0.4105 -0.645,-0.5563 -0.288,-0.1458 -0.9886,-0.3908 -2.0951,-0.7319 -0.992,-0.3049 -1.7185,-0.6326 -2.1804,-0.987 -0.4581,-0.3577 -0.8248,-0.8245 -1.0964,-1.4008 -0.2719,-0.5796 -0.4094,-1.2023 -0.4094,-1.868 0,-0.7748 0.1734,-1.4736 0.5238,-2.0929 0.3503,-0.6193 0.8317,-1.0898 1.4469,-1.4075 0.6156,-0.3147 1.375,-0.4738 2.2785,-0.4738 1.3588,0 2.4195,0.371 3.182,1.1162 0.763,0.7451 1.1656,1.8116 1.2115,3.1958l-2.3377 0.1194c-0.1013,-0.7585 -0.3239,-1.2917 -0.6645,-1.5931 -0.3403,-0.3013 -0.825,-0.4538 -1.4567,-0.4538 -0.6286,0 -1.1131,0.1325 -1.4536,0.3941 -0.3404,0.2617 -0.5107,0.5863 -0.5107,0.9771 0,0.3841 0.1572,0.7054 0.4681,0.967 0.3111,0.2616 1.0215,0.5565 2.1248,0.8776 1.172,0.3477 2.0166,0.7121 2.537,1.0895 0.5206,0.381 0.9199,0.8679 1.1951,1.4639 0.2749,0.5996 0.4124,1.3247 0.4124,2.1793 0,1.232 -0.3765,2.2718 -1.1261,3.1097 -0.753,0.8412 -1.9284,1.2619 -3.5259,1.2619 -2.8253,0 -4.3967,-1.623 -4.7175,-4.8685z"/>
     <g id="Logo">
      <path d="M40.488 39.4026c-28.4478,0.4959 -24.5961,-4.7472 -24.7733,12.1364 -0.1219,11.6124 -0.9958,25.5778 -0.3806,36.6513 -2.8003,0.001 -5.6322,0.0607 -8.4284,0.0056 -1.8991,-0.0373 -5.7935,-0.6683 -5.2588,2.4376 0.4195,2.4357 4.9179,1.7157 6.7517,1.7189 2.6113,0.0047 5.2227,0.0041 7.8342,0.008 23.091,0.0341 48.8348,0.3504 71.626,0 1.9342,-0.0298 6.139,0.7331 6.3153,-1.6922 0.2665,-3.6672 -10.0814,-1.8419 -13.1532,-2.4669l-0.6181 -36.661c0.0302,-2.5264 0.5211,-10.1061 -1.0941,-11.6708 -2.0956,-0.6235 -10.0057,-0.3178 -12.7139,-0.3298 -8.6482,-0.0381 -10.6712,-1.0233 -10.0422,3.0497 4.0359,1.9474 16.5695,-0.3905 19.7702,1.1107 0.8496,2.3196 0.6368,31.5669 0.7286,36.552 0.1813,9.8418 -1.6994,8.0405 -10.8296,8.0359l-37.3052 -0.0543c-9.6852,-0.0234 -9.9549,0.7553 -9.8554,-9.1002 0.0566,-5.6073 -0.011,-32.7599 0.9887,-36.0582 3.9522,-0.5808 11.9278,-0.0286 16.3278,-0.0127 7.4906,0.0271 7.1459,0.6561 13.3141,-3.1815 2.2601,-1.4062 3.1569,-2.2091 6.0746,-2.2585 4.3256,-0.0733 22.8732,0.8345 24.0218,-0.6016 0.7128,-1.7815 0.4084,-8.9561 -0.0821,-11.1902 -0.585,-2.6647 -3.5739,-4.9478 -6.1992,-5.3423 -4.2771,-0.643 -20.4973,0.5026 -22.9407,-0.5622 -1.7122,-3.0889 2.9846,-3.1336 4.9296,-5.9495 6.2528,-9.0518 -10.3268,-18.0371 -15.1003,-7.2629 -1.8361,4.1441 1.7029,6.9203 3.295,2.1209 1.0285,-3.1003 4.1416,-4.8462 7.0981,-3.0065 2.7638,1.7199 3.1012,6.0216 -0.0651,7.4988 -1.3984,0.6525 -3.3721,0.2559 -4.0416,1.5171 -0.7388,1.3922 0.1086,3.1675 -0.6266,4.9817 -3.297,1.4332 -19.975,-0.8937 -24.8468,0.5025 -3.573,1.024 -4.8821,4.2946 -4.9795,7.7037 -0.2248,7.8706 -1.1411,9.4179 3.48,9.0693 1.8666,-8.6141 -3.1448,-13.7244 6.5955,-13.5972l40.2903 0.2552c2.5442,0.0068 6.7577,-0.6925 8.591,1.3019 1.428,1.5534 1.588,7.0457 0.7698,8.6185 -1.8972,0.9726 -13.1368,0.3582 -16.0757,0.3235 -7.5997,-0.0898 -6.9442,-0.617 -13.1791,3.2613 -2.2669,1.41 -3.4007,2.089 -6.2128,2.138z"/>
      <path  d="M34.4709 60.1477c3.2982,0.1546 1.4287,-2.2284 5.7226,-5.1696 6.4929,-4.4474 14.4883,-3.0916 18.6413,3.1979 1.1511,1.7436 0.7647,2.7861 2.9007,2.7617 2.1612,-3.7413 -9.8135,-16.5055 -22.528,-8.0587 -1.9487,1.2946 -5.5368,4.6912 -4.7366,7.2687z"/>
      <path  d="M33.2313 66.8278c0.967,0.7992 4.924,0.7347 7.386,1.7686 9.1847,3.8568 8.6245,-0.7706 14.4437,-1.328 2.6764,-0.2564 5.5807,2.1126 7.5889,1.58 0.5521,-1.9198 -0.2594,-1.748 -1.954,-2.428 -1.2564,-0.5042 -2.456,-1.2201 -3.7961,-1.3745 -3.0137,-0.3472 -5.5564,1.0908 -8.2508,2.1281 -3.411,1.3132 -4.474,0.3498 -7.6008,-0.9212 -1.8874,-0.7672 -7.4844,-2.3455 -7.8169,0.575z"/>
      <path  d="M33.6574 61.1292c-0.472,1.1069 -0.359,0.1687 -0.1094,1.552 1.2359,0.5979 4.5382,0.3664 7.302,1.5496 8.1456,3.4871 9.3004,-1.4587 14.5587,-1.4529 2.5394,0.0028 4.7996,2.3049 7.2799,1.6277 0.4012,-2.108 -2.4216,-2.958 -5.2547,-3.6373 -2.873,-0.6888 -5.2223,0.3842 -7.7569,1.4693 -7.4864,3.2046 -10.6234,-3.5368 -16.0196,-1.1084z"/>
      <path  d="M34.739 71.8218c3.3106,0.617 3.4132,0.3866 6.6345,1.5966 8.202,3.0809 7.8256,-0.5131 13.0624,-1.4608 3.3184,-0.6005 4.8956,1.4052 7.1365,0.7091 0.1757,-2.6251 -4.0475,-3.1673 -6.1868,-3.0875 -6.681,0.2496 -5.0945,5.0977 -14.3115,1.1617 -1.659,-0.7085 -2.0987,-0.8185 -3.9611,-0.8463 -1.976,-0.0294 -2.8467,-0.2135 -2.374,1.9272z"/>
      <path  d="M38.1125 75.2685c-1.1303,2.9353 7.1717,4.0677 9.3485,3.6944 1.8435,-0.3162 3.2304,-1.3638 4.9702,-2.0158 2.0598,-0.7721 5.2769,-0.1036 5.7738,-0.9991 1.1637,-2.0975 -3.3833,-2.0379 -4.4139,-1.7718 -1.1096,0.2866 -3.7022,1.3988 -4.867,1.8832 -5.837,2.4278 -8.0495,-1.963 -10.8116,-0.7909z"/>
      <path  d="M53.6689 28.1483c-0.1765,2.2448 1.6016,1.6848 3.5937,1.6977 1.8749,0.0121 3.7245,0.0688 5.6017,0.0267 2.4317,-0.0543 8.7042,0.758 10.3517,-0.7165 -0.5165,-2.0964 -5.212,-1.3452 -9.2325,-1.3638 -1.701,-0.0079 -9.5446,-0.4025 -10.3146,0.3559z"/>
      <path  d="M23.0871 26.6658c-2.7382,2.3067 0.7578,5.6212 3.2103,3.613 2.325,-1.9039 -0.5656,-5.8408 -3.2103,-3.613z"/>
      <path  d="M31.7187 29.3568l0.2049 -1.5117c-2.7645,-1.6752 -3.8749,2.683 -0.2049,1.5117z"/>
      <path  d="M34.2609 29.4249l1.9294 0.0951c0.6217,-2.7854 -2.6485,-2.9374 -1.9294,-0.0951z"/>
     </g>
    </g>
   </g>
  </g>
  <polygon fill="none" points="-0.053,-0.2558 340.201,-0.2558 340.201,94.5742 -0.053,94.5742 "/>
 </g>
</svg>
